<?xml version="1.0" encoding="utf-8"?>

<!-- Uploaded to: SVG Repo, www.svgrepo.com, Generator: SVG Repo Mixer Tools -->
<svg version="1.1" id="Icons" xmlns="http://www.w3.org/2000/svg" xmlns:xlink="http://www.w3.org/1999/xlink" 
	 viewBox="0 0 32 32" xml:space="preserve">
<style type="text/css">
	.st0{fill:none;stroke:#000000;stroke-width:2;stroke-linecap:round;stroke-linejoin:round;stroke-miterlimit:10;}
</style>
<g>
	<path d="M16,14c2.8,0,5-2.2,5-5c0-2.5-3.6-6-4.3-6.7c-0.4-0.4-1-0.4-1.4,0C14.6,3,11,6.5,11,9C11,11.8,13.2,14,16,14z"/>
	<path d="M25,28h-4V16c0-0.6-0.4-1-1-1h-4v7c0,0.6-0.4,1-1,1s-1-0.4-1-1v-7h-2c-0.6,0-1,0.4-1,1v12H7c-0.6,0-1,0.4-1,1s0.4,1,1,1h5
		h8h5c0.6,0,1-0.4,1-1S25.6,28,25,28z"/>
</g>
</svg>