<?xml version="1.0" encoding="iso-8859-1"?>
<!-- Uploaded to: SVG Repo, www.svgrepo.com, Generator: SVG Repo Mixer Tools -->
<svg height="100px" width="100px" version="1.1" id="Layer_1" xmlns="http://www.w3.org/2000/svg" xmlns:xlink="http://www.w3.org/1999/xlink"
	 viewBox="0 0 512 512" xml:space="preserve">
<g>
	<g>
		<path d="M293.872,30.38C290.012,13,274.514,0,255.972,0s-34.04,13-37.901,30.38c-22.677,3.461-37.948,9.925-37.948,17.337
			c-0.001,7.164,14.269,13.446,35.706,16.982c0.2,22.003,18.091,39.78,40.141,39.78c22.05,0,39.942-17.777,40.141-39.78
			c21.438-3.537,35.707-9.818,35.707-16.982C331.819,40.307,316.549,33.841,293.872,30.38z"/>
	</g>
</g>
<g>
	<g>
		<path d="M203.644,117.277c-25.349,0-45.675,20.742-45.675,45.76v142.325c0.026,10.684,8.865,19.327,19.543,19.327
			c0.016,0,0.032,0,0.048,0c10.7-0.026,19.18-8.721,19.155-19.42c0-0.004,0-142.338,0-142.338c0-5.523,7.949-5.234,7.949,0v3.904
			h0.001h15.24v-49.558H203.644z"/>
	</g>
</g>
<g>
	<g>
		<path d="M237.08,117.277v49.558h37.784v-49.558C266.058,117.277,257.069,117.277,237.08,117.277z"/>
	</g>
</g>
<g>
	<g>
		<path d="M308.299,117.277h-16.262v49.558h15.241v-3.898c0-5.285,8.064-5.504,8.006,0.101v142.231
			c-0.026,10.699,8.398,19.394,19.098,19.42c0.016,0,0.031,0,0.048,0c10.676-0.001,19.575-8.644,19.601-19.327V163.036
			C354.03,138.024,333.651,117.277,308.299,117.277z"/>
	</g>
</g>
<g>
	<g>
		<path d="M307.279,184.009H204.664l0.009,304.743c0,12.839,10.408,23.247,23.247,23.247c12.839,0,23.247-10.408,23.247-23.247
			v-185.82h10.038v185.82c0,12.839,10.408,23.247,23.247,23.247c12.839,0,23.247-10.408,23.247-23.247
			C307.7,275.444,307.279,237.237,307.279,184.009z M272.788,253.617h-33.634c-6.323,0-11.45-5.126-11.45-11.45V208.84
			c0-1.513,1.227-2.74,2.74-2.74h51.053c1.513,0,2.74,1.227,2.74,2.74v33.328h0C284.238,248.49,279.112,253.617,272.788,253.617z"/>
	</g>
</g>
</svg>